<?xml version="1.0" encoding="UTF-8" standalone="no"?><!DOCTYPE svg PUBLIC "-//W3C//DTD SVG 1.1//EN" "http://www.w3.org/Graphics/SVG/1.1/DTD/svg11.dtd"><svg width="100%" height="100%" viewBox="0 0 515 519" version="1.1" xmlns="http://www.w3.org/2000/svg" xmlns:xlink="http://www.w3.org/1999/xlink" xml:space="preserve" xmlns:serif="http://www.serif.com/" style="fill-rule:evenodd;clip-rule:evenodd;stroke-linejoin:round;stroke-miterlimit:2;"><g id="Logo-invertiert-schwarz" serif:id="Logo invertiert schwarz"><g><path d="M114.642,333.426l0,173.099l284.084,0l-0,-370.926" style="fill:none;stroke:#181715;stroke-width:12.5px;stroke-linecap:square;stroke-linejoin:miter;stroke-miterlimit:1.5;"/><path d="M404.255,235.358l97.774,-0.804c0,0 0,-117.762 0,-123.846c0,-26.233 -10.883,-51.391 -30.256,-69.941c-18.026,-17.259 -42.027,-27.482 -67.375,-28.809l-251.187,-0" style="fill:none;stroke:#181715;stroke-width:12.5px;stroke-linecap:square;stroke-linejoin:miter;stroke-miterlimit:1.5;"/><path d="M243.771,135.599l0,370.926" style="fill:none;stroke:#181715;stroke-width:12.5px;stroke-linecap:square;stroke-linejoin:miter;stroke-miterlimit:1.5;"/><path d="M114.642,177.358c0,-26.233 -10.883,-51.391 -30.256,-69.94c-18.026,-17.26 -42.027,-27.483 -67.374,-28.81" style="fill:none;stroke:#181715;stroke-width:12.5px;stroke-linecap:round;stroke-miterlimit:1.5;"/><path d="M17.012,78.608c5.047,-14.063 13.401,-26.973 24.584,-37.68c19.346,-18.523 45.574,-28.941 73.046,-28.97l21.233,-0" style="fill:none;stroke:#181715;stroke-width:12.5px;stroke-linecap:round;stroke-miterlimit:1.5;"/><path d="M135.875,11.958l17.506,-0l72.312,98.913l-72.312,0l-17.506,-98.913" style="fill:none;stroke:#181715;stroke-width:12.5px;stroke-miterlimit:1.5;"/><path d="M225.693,110.871l18.078,24.728l0,-49.456c0,-0 77.478,9.942 77.478,-61.821l-0,-12.364" style="fill:none;stroke:#181715;stroke-width:12.5px;stroke-miterlimit:1.5;"/><path d="M243.771,135.599l0,-49.456" style="fill:none;stroke:#181715;stroke-width:12.5px;stroke-linecap:round;stroke-miterlimit:1.5;"/><path d="M114.642,177.358l0,329.167l-103.303,0l0,-274.254" style="fill:none;stroke:#181715;stroke-width:12.5px;stroke-linecap:round;stroke-linejoin:miter;stroke-miterlimit:1.5;"/><path d="M11.339,232.271l0,-121.402c0,-11.091 1.945,-21.989 5.673,-32.261" style="fill:none;stroke:#181715;stroke-width:12.5px;stroke-linecap:square;stroke-linejoin:miter;stroke-miterlimit:1.5;"/><g><path d="M500.266,209.785l-96.011,-0l96.011,-0Z" style="fill:none;stroke:#181715;stroke-width:12.5px;stroke-linecap:square;stroke-linejoin:miter;stroke-miterlimit:1.5;"/><path d="M398.726,481.716l-153.11,0l153.11,0Z" style="fill:none;stroke:#181715;stroke-width:12.5px;stroke-linecap:square;stroke-linejoin:miter;stroke-miterlimit:1.5;"/><path d="M347.074,209.785l-51.651,-0l51.651,-0Z" style="fill:none;stroke:#181715;stroke-width:12.5px;stroke-linecap:square;stroke-linejoin:miter;stroke-miterlimit:1.5;"/></g><path d="M28.493,483.056l12.081,-0.094l-12.081,0.094Z" style="fill:none;stroke:#000;stroke-width:12.5px;stroke-linecap:square;stroke-linejoin:miter;stroke-miterlimit:1.5;"/><path d="M12.221,460.26l101.859,-0l-101.859,-0Z" style="fill:none;stroke:#181715;stroke-width:12.5px;stroke-linecap:square;stroke-linejoin:miter;stroke-miterlimit:1.5;"/><path d="M211.489,185.056l-96.847,0l0,87.712l46.255,23.566l50.592,-23.566l-0,-87.712Z" style="fill:none;stroke:#181715;stroke-width:12.5px;stroke-linecap:square;stroke-linejoin:miter;stroke-miterlimit:1.5;"/></g></g></svg>