<?xml version="1.0" encoding="UTF-8" standalone="no"?><!DOCTYPE svg PUBLIC "-//W3C//DTD SVG 1.1//EN" "http://www.w3.org/Graphics/SVG/1.1/DTD/svg11.dtd"><svg width="100%" height="100%" viewBox="0 0 124 125" version="1.1" xmlns="http://www.w3.org/2000/svg" xmlns:xlink="http://www.w3.org/1999/xlink" xml:space="preserve" xmlns:serif="http://www.serif.com/" style="fill-rule:evenodd;clip-rule:evenodd;stroke-linejoin:round;stroke-miterlimit:2;"><g id="Logo-invertiert-schwarz" serif:id="Logo invertiert schwarz"><g><path d="M27.716,79.82l0,41.544l68.18,-0l0,-89.022" style="fill:none;stroke:#181715;stroke-width:3px;stroke-linecap:square;stroke-linejoin:miter;stroke-miterlimit:1.5;"/><path d="M97.223,56.284l23.466,-0.203l0,-29.713" style="fill:none;stroke:#181715;stroke-width:3px;stroke-linecap:square;stroke-linejoin:miter;stroke-miterlimit:1.5;"/><path d="M58.707,32.342l0,89.022" style="fill:none;stroke:#181715;stroke-width:3px;stroke-linecap:square;stroke-linejoin:miter;stroke-miterlimit:1.5;"/><path d="M27.716,42.364c0,-6.296 -2.612,-12.334 -7.261,-16.786c-4.326,-4.142 -10.087,-6.596 -16.17,-6.914" style="fill:none;stroke:#181715;stroke-width:3px;stroke-linecap:round;stroke-miterlimit:1.5;"/><path d="M120.689,26.368c0,-6.296 -2.612,-12.334 -7.261,-16.786c-4.326,-4.142 -10.087,-6.596 -16.17,-6.914" style="fill:none;stroke:#181715;stroke-width:3px;stroke-linecap:round;stroke-miterlimit:1.5;"/><path d="M4.285,18.664c1.211,-3.375 3.216,-6.474 5.9,-9.044c4.643,-4.445 10.938,-6.945 17.531,-6.952l5.096,-0" style="fill:none;stroke:#181715;stroke-width:3px;stroke-linecap:round;stroke-miterlimit:1.5;"/><path d="M32.812,2.668l4.202,-0l17.355,23.739l-17.355,-0l-4.202,-23.739" style="fill:none;stroke:#181715;stroke-width:3px;stroke-miterlimit:1.5;"/><path d="M54.369,26.407l4.338,5.935l0,-11.87c0,-0 18.595,2.386 18.595,-14.837l-0,-2.967" style="fill:none;stroke:#181715;stroke-width:3px;stroke-miterlimit:1.5;"/><path d="M97.223,2.668l-60.25,-0" style="fill:none;stroke:#181715;stroke-width:3px;stroke-linecap:round;stroke-miterlimit:1.5;"/><path d="M58.707,32.342l0,-11.87" style="fill:none;stroke:#181715;stroke-width:3px;stroke-linecap:round;stroke-miterlimit:1.5;"/><path d="M27.716,42.364l0,79l-24.792,-0l-0,-65.821" style="fill:none;stroke:#181715;stroke-width:3px;stroke-linecap:round;stroke-linejoin:miter;stroke-miterlimit:1.5;"/><path d="M2.924,55.543l-0,-29.137c-0,-2.661 0.466,-5.277 1.361,-7.742" style="fill:none;stroke:#181715;stroke-width:3px;stroke-linecap:square;stroke-linejoin:miter;stroke-miterlimit:1.5;"/><g><path d="M120.266,50.146l-23.043,0l23.043,0Z" style="fill:none;stroke:#181715;stroke-width:3px;stroke-linecap:square;stroke-linejoin:miter;stroke-miterlimit:1.5;"/><path d="M95.896,115.41l-36.746,-0l36.746,-0Z" style="fill:none;stroke:#181715;stroke-width:3px;stroke-linecap:square;stroke-linejoin:miter;stroke-miterlimit:1.5;"/><path d="M83.5,50.146l-12.396,0l12.396,0Z" style="fill:none;stroke:#181715;stroke-width:3px;stroke-linecap:square;stroke-linejoin:miter;stroke-miterlimit:1.5;"/></g><path d="M7.839,115.644l0.185,-0l-0.185,-0Z" style="fill:none;stroke:#181715;stroke-width:3px;stroke-linecap:square;stroke-linejoin:miter;stroke-miterlimit:1.5;"/><path d="M3.135,110.26l24.447,0l-24.447,0Z" style="fill:none;stroke:#181715;stroke-width:3px;stroke-linecap:square;stroke-linejoin:miter;stroke-miterlimit:1.5;"/><path d="M50.96,44.211l-23.244,0l0,21.051l11.101,5.656l12.143,-5.656l-0,-21.051Z" style="fill:none;stroke:#181715;stroke-width:3px;stroke-linecap:square;stroke-linejoin:miter;stroke-miterlimit:1.5;"/></g></g></svg>